<svg width="388" height="385" viewBox="0 0 388 385" fill="none" xmlns="http://www.w3.org/2000/svg">
<path d="M387.242 317.836L386.481 205.669C386.481 182.855 386.862 159.281 385.721 137.228C385.341 127.722 385.341 117.836 385.341 107.57C385.341 89.6992 384.961 73.3493 383.82 57.3797L383.059 41.4101C382.679 31.1439 382.299 21.258 381.919 10.9918V3.76744H354.162L293.706 2.62675H253.401C246.369 2.63248 239.357 3.39736 232.489 4.90813L230.207 6.04881H189.523C189.143 5.28836 186.481 4.90813 181.158 4.5279L130.587 1.10584C106.782 -0.486162 82.892 -0.359089 59.1045 1.48607C46.9371 2.24653 34.3896 3.00698 17.6595 3.38721L5.87242 1.8663H1.68991V6.42904C0.929448 14.0336 0.549219 22.7789 0.549219 33.0451C0.549219 43.3112 0.549219 58.9006 0.168991 71.8284C-0.211238 84.7562 0.168991 91.9805 0.168991 102.247C-0.0422518 111.019 0.466426 119.794 1.68991 128.482C2.33392 132.126 2.71514 135.811 2.83059 139.509C3.21082 153.958 4.35151 157.76 5.87242 160.422V227.342L5.11197 229.243C5.49219 244.452 4.73174 258.141 4.35151 272.209C3.21082 300.346 2.83059 329.243 3.97128 357.76C4.00232 364.018 4.639 370.257 5.87242 376.392V379.434H22.9827L22.2223 380.194H42.7546C53.6779 379.778 64.6168 380.287 75.4543 381.715C80.2262 382.53 85.0622 382.912 89.903 382.856C114.998 382.475 138.192 383.236 161.766 384.376H187.242L240.093 383.236C263.287 382.856 285.341 381.335 309.675 381.335H346.557L359.865 380.574L370.512 378.673H379.257V374.871C380.398 380.954 381.538 380.194 383.059 371.829C383.44 369.548 383.82 366.886 384.2 364.224C384.58 361.563 385.341 354.338 386.101 351.297C387.44 340.197 387.821 329.002 387.242 317.836Z" fill="#111111"/>
<path d="M237.708 93.4199C236.92 83.1484 229.187 74.845 219.179 73.177C217.978 72.9781 216.757 72.8508 215.497 72.8508C214.225 72.8508 212.981 72.9677 211.767 73.177C208.816 73.683 206.065 74.7665 203.626 76.3054C201.244 77.8077 199.157 79.7269 197.502 81.9934C197.453 82.0545 197.395 82.1103 197.353 82.1748C197.236 82.3371 131.751 175.876 131.751 175.876C131.881 175.876 169.32 175.88 184.765 175.88C213.993 175.883 237.694 152.233 237.785 123.025C237.785 122.973 237.787 122.919 237.788 122.865V111.056L255.753 102.255L237.708 93.4199ZM218.078 96.7856C216.26 96.7856 214.789 95.3113 214.789 93.495C214.789 91.6786 216.26 90.2095 218.078 90.2095C219.894 90.2095 221.368 91.6786 221.368 93.495C221.367 95.3113 219.894 96.7856 218.078 96.7856Z" fill="white"/>
<path d="M69.2524 240.152C76.1548 240.152 81.075 242.204 84.0136 246.308C86.9522 250.413 88.421 256.056 88.421 263.238V288.563C88.421 295.745 86.7886 301.342 83.5239 305.353C80.2592 309.364 75.1758 311.37 68.273 311.37C66.4075 311.37 64.752 311.206 63.3059 310.88C61.8599 310.553 60.6709 310.157 59.7381 309.691C58.6187 309.224 57.6859 308.665 56.9397 308.012C56.7532 308.571 56.4734 309.038 56.1002 309.411C55.7271 309.784 55.2374 310.11 54.6311 310.39C54.0248 310.67 53.2553 310.81 52.3225 310.81H38.7506V306.612C38.7506 304.84 39.1237 303.441 39.8699 302.415C40.6161 301.389 41.3622 300.643 42.1084 300.176C42.5748 299.803 42.9245 299.43 43.1578 299.057C43.391 298.684 43.5076 298.031 43.5076 297.098V220.004C43.5076 218.698 42.9945 217.719 41.9685 217.066C41.2223 216.506 40.4994 215.736 39.7998 214.757C39.1002 213.778 38.7504 212.448 38.7504 210.769V206.152H50.5034C52.2757 206.152 53.7915 206.595 55.0507 207.481C56.31 208.367 56.9396 210.303 56.9396 213.288V243.93C57.8724 243.277 58.9451 242.67 60.1578 242.111C61.1838 241.644 62.4664 241.201 64.0055 240.782C65.5446 240.362 67.2935 240.152 69.2524 240.152ZM74.989 262.538C74.8025 258.9 73.8931 256.195 72.2607 254.423C70.6283 252.651 68.5061 251.765 65.8945 251.765C64.6819 251.765 63.5392 251.928 62.4664 252.254C61.3937 252.581 60.4842 252.977 59.7381 253.444C58.712 253.91 57.8259 254.47 57.0798 255.123C56.9865 262.118 56.9399 268.508 56.9399 274.291V296.818C57.5928 297.657 58.4324 298.357 59.4584 298.916C60.2979 299.383 61.3239 299.826 62.5365 300.246C63.7492 300.665 65.1949 300.875 66.8739 300.875C72.2842 300.875 74.9891 297.284 74.9891 290.102L74.989 262.538ZM138.137 251.765C138.137 252.697 137.787 253.233 137.088 253.373C136.388 253.513 135.665 253.49 134.919 253.303C132.681 252.744 130.488 252.65 128.343 253.023C126.198 253.397 124.286 254.05 122.607 254.982C120.928 255.915 119.575 257.058 118.549 258.411C117.523 259.763 117.01 261.186 117.01 262.678V297.377C117.01 298.217 117.126 298.846 117.36 299.266C117.593 299.686 117.943 300.036 118.409 300.316C119.155 300.782 119.878 301.551 120.578 302.624C121.277 303.697 121.627 305.119 121.627 306.892L121.487 310.809H98.8207V306.752C98.8207 304.979 99.1938 303.557 99.94 302.484C100.686 301.412 101.432 300.642 102.179 300.176C102.645 299.896 102.995 299.546 103.228 299.126C103.461 298.707 103.578 298.03 103.578 297.098V254.283C103.578 253.35 103.065 252.557 102.039 251.904C101.292 251.438 100.57 250.692 99.8699 249.666C99.1703 248.64 98.8206 247.334 98.8206 245.748V240.991H113.652C115.89 240.991 117.01 242.017 117.01 244.069V245.888C118.222 244.955 119.528 244.116 120.927 243.37C122.14 242.717 123.469 242.11 124.915 241.551C126.361 240.991 127.876 240.618 129.462 240.431C131.328 240.245 133.333 240.385 135.479 240.851C135.945 240.944 136.505 241.224 137.158 241.691C137.811 242.157 138.137 242.903 138.137 243.929L138.137 251.765ZM159.03 278.769L159.03 291.501C159.03 295.232 159.939 297.657 161.758 298.777C163.577 299.896 165.793 300.456 168.404 300.456C170.923 300.456 172.975 299.779 174.561 298.427C176.146 297.074 176.893 295.325 176.799 293.18V292.62C176.799 290.475 177.429 288.633 178.688 287.094C179.947 285.555 181.836 284.785 184.355 284.785H190.091V294.159C190.091 300.222 188.109 304.63 184.145 307.382C180.181 310.133 174.794 311.509 167.985 311.509C160.989 311.509 155.532 309.783 151.614 306.332C147.697 302.881 145.738 297.61 145.738 290.522V262.818C145.738 255.636 147.697 250.086 151.614 246.168C155.532 242.25 160.989 240.292 167.985 240.292C174.887 240.292 180.297 242.25 184.215 246.168C188.133 250.086 190.091 255.636 190.091 262.818V271.773C190.091 276.436 187.013 278.769 180.857 278.769H159.03ZM159.03 269.254H176.799V262.118C176.799 258.481 175.96 255.776 174.281 254.003C172.602 252.231 170.503 251.345 167.985 251.345C165.373 251.345 163.227 252.231 161.548 254.003C159.869 255.776 159.03 258.481 159.03 262.118V269.254ZM247.083 240.851L247.082 244.908C247.082 246.68 246.732 248.103 246.033 249.176C245.333 250.248 244.657 251.018 244.004 251.484C243.818 251.577 243.538 252.743 243.165 254.982C242.791 257.221 242.325 260.066 241.765 263.517C241.206 266.968 240.6 270.793 239.947 274.99C239.294 279.188 238.664 283.315 238.058 287.373C237.451 291.43 236.845 295.185 236.239 298.636C235.633 302.087 235.143 304.746 234.77 306.611C234.49 307.917 234.07 308.943 233.511 309.689C232.951 310.435 232.065 310.809 230.852 310.809H217.98C216.114 310.809 214.808 310.599 214.062 310.179C213.316 309.759 212.71 308.617 212.243 306.751C212.15 306.191 211.87 304.536 211.404 301.784C210.937 299.032 210.378 295.768 209.725 291.99C209.072 288.212 208.396 284.201 207.696 279.957C206.996 275.713 206.367 271.749 205.807 268.064C205.247 264.379 204.758 261.255 204.338 258.69C203.918 256.124 203.662 254.656 203.568 254.282C203.289 253.256 203.102 252.673 203.009 252.533C202.915 252.393 202.636 252.137 202.169 251.764C201.423 251.297 200.724 250.551 200.071 249.525C199.418 248.499 199.091 247.193 199.091 245.608V240.85H210.984C212.477 240.85 213.526 241.06 214.132 241.48C214.738 241.9 215.182 242.996 215.461 244.768C215.461 244.955 215.601 245.864 215.881 247.497C216.161 249.129 216.487 251.251 216.861 253.863C217.234 256.474 217.677 259.413 218.19 262.677C218.703 265.942 219.193 269.254 219.659 272.612C220.778 280.54 222.084 289.541 223.577 299.615C224.976 290.008 226.189 281.38 227.215 273.731C227.681 270.466 228.147 267.272 228.614 264.147C229.08 261.022 229.5 258.2 229.873 255.682C230.246 253.163 230.549 251.088 230.782 249.455C231.016 247.823 231.179 246.867 231.272 246.587C231.552 245.468 231.762 244.558 231.902 243.859C232.042 243.159 232.228 242.576 232.462 242.11C232.695 241.643 233.091 241.317 233.651 241.13C234.21 240.944 235.05 240.851 236.169 240.851L247.083 240.851ZM269.375 278.769L269.375 291.501C269.375 295.232 270.285 297.657 272.104 298.777C273.923 299.896 276.138 300.456 278.75 300.456C281.268 300.456 283.32 299.779 284.906 298.427C286.492 297.074 287.238 295.325 287.145 293.18V292.62C287.145 290.475 287.774 288.633 289.033 287.094C290.293 285.555 292.182 284.785 294.7 284.785H300.437V294.159C300.437 300.222 298.454 304.63 294.49 307.382C290.526 310.133 285.139 311.509 278.33 311.509C271.334 311.509 265.877 309.783 261.96 306.332C258.042 302.881 256.083 297.61 256.083 290.522V262.818C256.083 255.636 258.042 250.086 261.96 246.168C265.877 242.25 271.334 240.292 278.33 240.292C285.232 240.292 290.643 242.25 294.56 246.168C298.478 250.086 300.437 255.636 300.437 262.818V271.773C300.437 276.436 297.359 278.769 291.202 278.769H269.375ZM269.375 269.254H287.145V262.118C287.145 258.481 286.305 255.776 284.626 254.003C282.947 252.231 280.848 251.345 278.33 251.345C275.718 251.345 273.573 252.231 271.894 254.003C270.215 255.776 269.375 258.481 269.375 262.118V269.254ZM348.753 251.765C348.753 252.697 348.404 253.233 347.704 253.373C347.005 253.513 346.282 253.49 345.536 253.303C343.297 252.744 341.105 252.65 338.96 253.023C336.814 253.397 334.902 254.05 333.223 254.982C331.544 255.915 330.191 257.058 329.165 258.411C328.139 259.763 327.626 261.186 327.626 262.678V297.377C327.626 298.217 327.743 298.846 327.976 299.266C328.209 299.686 328.559 300.036 329.026 300.316C329.772 300.782 330.495 301.551 331.194 302.624C331.894 303.697 332.244 305.119 332.244 306.892L332.104 310.809H309.437V306.752C309.437 304.979 309.81 303.557 310.557 302.484C311.303 301.412 312.049 300.642 312.795 300.176C313.261 299.896 313.611 299.546 313.844 299.126C314.078 298.707 314.194 298.03 314.194 297.098V254.283C314.194 253.35 313.681 252.557 312.655 251.904C311.909 251.438 311.186 250.692 310.487 249.666C309.787 248.64 309.437 247.334 309.437 245.748V240.991H324.268C326.507 240.991 327.626 242.017 327.626 244.069V245.888C328.839 244.955 330.145 244.116 331.544 243.37C332.757 242.717 334.086 242.11 335.532 241.551C336.977 240.991 338.493 240.618 340.079 240.431C341.944 240.245 343.95 240.385 346.095 240.851C346.562 240.944 347.121 241.224 347.774 241.691C348.427 242.157 348.754 242.903 348.754 243.929L348.753 251.765Z" fill="white"/>
</svg>
